<?xml version="1.0" standalone="no"?>
<!DOCTYPE svg PUBLIC "-//W3C//DTD SVG 20010904//EN"
 "http://www.w3.org/TR/2001/REC-SVG-20010904/DTD/svg10.dtd">
<svg version="1.0" xmlns="http://www.w3.org/2000/svg"
 width="64.000000pt" height="64.000000pt" viewBox="0 0 64.000000 64.000000"
 preserveAspectRatio="xMidYMid meet">

<g transform="translate(0.000000,64.000000) scale(0.100000,-0.100000)"
fill="#0b3c3c" stroke="none">
<path d="M27 612 l-25 -27 27 -26 26 -26 26 26 26 26 -27 27 -27 27 -26 -27z
m37 -33 c-3 -5 -10 -7 -15 -3 -5 3 -7 10 -3 15 3 5 10 7 15 3 5 -3 7 -10 3
-15z"/>
<path d="M185 570 c-78 -18 -118 -72 -117 -160 1 -52 22 -130 41 -154 5 -6 19
-58 32 -115 26 -119 43 -147 82 -137 30 7 35 20 57 146 15 90 17 95 40 95 23
0 25 -5 40 -95 9 -52 20 -105 24 -117 9 -27 39 -38 65 -23 21 10 27 29 56 155
9 39 25 89 36 112 25 51 39 135 29 177 -16 73 -73 119 -143 116 -104 -5 -164
-5 -187 1 -14 4 -39 3 -55 -1z m135 -32 c8 0 43 3 77 7 53 7 66 5 95 -13 67
-41 77 -127 29 -245 -15 -40 -36 -110 -46 -157 -17 -80 -29 -110 -44 -110 -21
1 -32 27 -47 120 -21 126 -44 159 -89 127 -13 -10 -23 -44 -37 -118 -29 -164
-61 -171 -93 -19 -10 47 -31 117 -46 157 -47 117 -36 204 30 247 21 13 39 16
91 10 36 -3 72 -6 80 -6z"/>
<path d="M141 484 c-22 -28 -27 -54 -11 -54 6 0 10 6 10 13 0 8 9 22 20 32 11
10 20 22 20 27 0 16 -19 8 -39 -18z"/>
<path d="M200 500 c0 -5 5 -10 10 -10 6 0 10 5 10 10 0 6 -4 10 -10 10 -5 0
-10 -4 -10 -10z"/>
<path d="M561 164 l-24 -25 25 -26 25 -25 26 26 26 26 -25 25 c-14 14 -26 25
-27 25 -1 0 -13 -12 -26 -26z m39 -24 c0 -5 -4 -10 -10 -10 -5 0 -10 5 -10 10
0 6 5 10 10 10 6 0 10 -4 10 -10z"/>
</g>
</svg>
