<?xml version="1.0" standalone="no"?>
<!DOCTYPE svg PUBLIC "-//W3C//DTD SVG 20010904//EN"
 "http://www.w3.org/TR/2001/REC-SVG-20010904/DTD/svg10.dtd">
<svg version="1.0" xmlns="http://www.w3.org/2000/svg"
 width="247.000000pt" height="247.000000pt" viewBox="0 0 247.000000 247.000000"
 preserveAspectRatio="xMidYMid meet">

<g transform="translate(0.000000,247.000000) scale(0.100000,-0.100000)"
fill="#000000" stroke="none">
<path d="M529 2410 c-54 -16 -151 -74 -181 -109 -17 -19 -45 -65 -62 -101 -31
-64 -31 -67 -30 -215 1 -135 4 -162 32 -266 17 -64 53 -172 80 -240 195 -490
213 -527 282 -596 49 -50 100 -75 163 -81 40 -4 50 -9 58 -28 4 -13 13 -24 19
-24 6 0 10 -24 10 -55 0 -30 -4 -55 -8 -55 -31 0 -35 -97 -6 -121 20 -17 18
-98 -3 -122 -23 -24 -22 -96 1 -112 13 -10 16 -30 16 -97 0 -97 3 -101 77
-125 75 -23 358 -29 452 -9 101 21 121 36 121 88 0 27 6 45 17 53 17 13 17 14
0 32 -25 28 -25 178 0 206 17 18 17 19 0 32 -24 17 -26 192 -2 201 8 4 15 12
15 19 0 7 -7 15 -15 19 -9 3 -15 18 -15 38 l0 33 53 -3 c51 -3 55 -2 104 42
210 189 400 775 380 1176 -9 182 -57 303 -147 365 -133 92 -455 66 -691 -56
-91 -47 -198 -144 -180 -162 10 -9 17 -6 33 16 24 33 123 105 195 141 131 66
359 106 488 87 93 -14 142 -38 189 -92 112 -131 124 -408 35 -789 -69 -300
-241 -639 -351 -693 -48 -24 -86 -14 -210 56 -140 80 -195 118 -278 192 -87
79 -131 101 -217 111 -54 6 -63 4 -63 -10 0 -11 9 -16 33 -16 62 0 136 -29
190 -75 28 -25 73 -62 99 -84 l47 -39 -58 -4 c-38 -3 -74 -13 -107 -31 -156
-87 -214 -100 -310 -72 -47 13 -69 27 -111 70 -61 63 -83 105 -175 330 -173
424 -207 538 -215 721 -5 107 -3 131 17 195 19 63 30 81 83 134 73 73 149 107
240 107 86 0 143 -33 282 -162 142 -132 217 -183 306 -211 69 -21 194 -24 194
-4 0 6 -40 13 -90 16 -140 10 -189 38 -382 215 -150 138 -215 174 -312 173
-36 0 -78 -4 -92 -9z m722 -1515 c61 -5 91 -15 167 -53 90 -46 92 -48 92 -82
l0 -35 -112 7 c-126 8 -245 30 -327 59 -66 23 -71 27 -47 42 75 47 133 76 142
73 7 -3 45 -7 85 -11z m-223 -195 c127 -32 261 -50 375 -50 l107 0 0 -80 0
-80 -49 0 c-150 0 -385 51 -476 103 -38 21 -40 25 -43 75 -2 28 0 52 3 52 4 0
41 -9 83 -20z m195 -275 c58 -8 146 -15 196 -15 l91 0 0 -81 0 -81 -82 7
c-200 16 -332 45 -428 93 l-55 28 -3 55 -3 55 90 -22 c50 -13 137 -30 194 -39z
m-142 -209 c137 -30 297 -49 374 -44 l56 3 -3 -40 c-2 -32 -8 -42 -30 -52 -44
-22 -126 -33 -237 -33 -122 0 -210 12 -263 36 l-38 17 0 75 c0 59 3 73 14 69
7 -3 65 -17 127 -31z"/>
<path d="M1563 2084 c-6 -17 14 -36 32 -31 6 2 11 13 13 25 3 17 -2 22 -18 22
-11 0 -23 -7 -27 -16z"/>
</g>
  <style>
    path { fill: #000 }
    @media (prefers-color-scheme: dark) {
      path { fill: #FFF }
    }
  </style>
</svg>
