<?xml version="1.0" standalone="no"?>
<!DOCTYPE svg PUBLIC "-//W3C//DTD SVG 20010904//EN"
 "http://www.w3.org/TR/2001/REC-SVG-20010904/DTD/svg10.dtd">
<svg version="1.0" xmlns="http://www.w3.org/2000/svg"
 width="64.000000pt" height="64.000000pt" viewBox="0 0 64.000000 64.000000"
 preserveAspectRatio="xMidYMid meet">

<g transform="translate(0.000000,64.000000) scale(0.100000,-0.100000)"
fill="#0b3c3c" stroke="none">
<path d="M185 628 c-36 -19 -55 -52 -55 -94 0 -57 38 -165 61 -171 10 -3 19
-16 21 -32 2 -18 10 -27 26 -29 22 -3 26 -27 4 -27 -22 0 -25 -16 -4 -22 28
-7 30 -43 2 -43 -11 0 -20 -4 -20 -10 0 -5 9 -10 20 -10 28 0 26 -36 -2 -44
l-23 -7 23 -9 c12 -5 22 -16 22 -25 0 -9 -10 -20 -22 -25 l-23 -9 22 -6 c12
-4 26 -20 32 -36 9 -26 15 -29 51 -29 34 0 42 4 50 25 6 15 15 23 24 19 8 -3
17 0 21 6 4 7 -2 14 -14 17 -28 7 -28 43 -1 43 11 0 20 5 20 10 0 6 -9 10 -20
10 -28 0 -26 36 3 44 l22 7 -22 9 c-13 5 -23 16 -23 25 0 9 10 20 23 25 l22 9
-22 7 c-13 3 -23 14 -23 24 0 12 9 20 23 22 15 2 23 11 25 29 2 16 11 29 21
32 21 5 61 113 61 164 0 83 -55 123 -140 103 -38 -9 -62 -9 -95 -1 -54 13 -65
13 -90 -1z m90 -20 c35 -9 55 -9 94 1 42 11 54 10 79 -3 49 -25 54 -66 21
-164 l-21 -62 -128 0 -128 0 -21 62 c-33 97 -27 139 24 166 25 14 26 14 80 0z
m135 -268 c0 -19 -7 -20 -90 -20 -83 0 -90 1 -90 20 0 19 7 20 90 20 83 0 90
-1 90 -20z m-50 -61 c0 -15 -4 -19 -16 -15 -9 3 -27 6 -40 6 -15 0 -24 6 -24
15 0 11 11 15 40 15 34 0 40 -3 40 -21z m-31 -35 c39 -8 45 -44 7 -44 -37 0
-56 10 -56 31 0 21 3 22 49 13z m31 -88 c0 -19 -4 -21 -40 -18 -33 3 -40 8
-40 26 0 19 4 21 40 18 33 -3 40 -8 40 -26z m-16 -42 c17 -6 23 -44 7 -44 -38
0 -71 15 -71 31 0 20 31 26 64 13z m-13 -64 c10 0 19 -7 19 -15 0 -25 -56 -20
-63 6 -4 15 -2 19 10 15 8 -3 23 -6 34 -6z"/>
<path d="M180 571 c-13 -25 -13 -51 0 -51 6 0 10 6 10 14 0 7 7 19 15 26 8 7
12 16 9 21 -9 15 -23 10 -34 -10z"/>
</g>
</svg>
