<?xml version="1.0" standalone="no"?>
<!DOCTYPE svg PUBLIC "-//W3C//DTD SVG 20010904//EN"
 "http://www.w3.org/TR/2001/REC-SVG-20010904/DTD/svg10.dtd">
<svg version="1.0" xmlns="http://www.w3.org/2000/svg"
 width="64.000000pt" height="64.000000pt" viewBox="0 0 64.000000 64.000000"
 preserveAspectRatio="xMidYMid meet">

<g transform="translate(0.000000,64.000000) scale(0.100000,-0.100000)"
fill="#0b3c3c" stroke="none">
<path d="M178 574 c-15 -15 -8 -19 35 -20 23 -1 62 -2 87 -4 25 -2 70 0 100 4
46 6 60 4 88 -13 41 -26 72 -77 72 -118 l0 -33 -70 0 c-61 0 -70 2 -70 18 0
33 -22 42 -100 42 -78 0 -100 -9 -100 -42 0 -16 -9 -18 -70 -18 l-70 0 0 33
c0 17 9 46 20 64 10 18 15 35 11 38 -15 8 -44 -46 -49 -92 -2 -24 -9 -43 -13
-43 -14 0 -10 -20 4 -20 21 -1 76 -101 87 -159 21 -104 31 -131 51 -142 42
-22 96 15 87 59 -3 13 -8 9 -19 -13 -15 -32 -49 -44 -66 -23 -6 7 -18 49 -27
92 -16 80 -27 108 -60 159 l-18 27 66 0 c57 0 66 -2 66 -18 0 -33 22 -42 100
-42 78 0 100 9 100 42 0 16 9 18 66 18 l66 0 -18 -27 c-39 -60 -57 -111 -39
-112 6 0 13 10 17 24 9 36 61 114 76 115 13 0 17 20 3 20 -4 0 -11 21 -14 46
-5 50 -27 85 -71 118 -27 21 -61 24 -171 16 -22 -2 -65 1 -95 5 -30 4 -58 4
-62 -1z m217 -194 l0 -45 -75 0 -75 0 -3 33 c-6 59 0 63 80 60 l73 -3 0 -45z"/>
<path d="M272 394 c-11 -12 -10 -17 4 -32 13 -12 19 -13 22 -4 5 16 39 16 44
0 3 -9 9 -8 22 5 17 16 17 18 0 34 -13 13 -19 14 -22 5 -4 -14 -42 -16 -42 -2
0 14 -13 12 -28 -6z"/>
<path d="M130 539 c0 -5 5 -7 10 -4 6 3 10 8 10 11 0 2 -4 4 -10 4 -5 0 -10
-5 -10 -11z"/>
<path d="M200 522 c0 -17 64 -37 120 -37 56 0 120 20 120 37 0 6 -8 7 -17 3
-70 -30 -128 -29 -205 0 -10 4 -18 3 -18 -3z"/>
<path d="M290 216 c-6 -8 -10 -25 -8 -38 4 -22 5 -22 16 5 17 41 35 29 52 -35
23 -84 50 -105 100 -78 27 15 54 120 31 120 -5 0 -13 -21 -17 -46 -17 -89 -68
-85 -94 7 -8 30 -19 60 -23 67 -11 16 -42 15 -57 -2z"/>
</g>
</svg>
